<html>
<head>
<meta charset="UTF-8">
<meta name="viewport" content="width=device-width, initial-scale=1.0"/>

<style>
.comment
{
    padding-left: 20px;
    margin-top: 4px;
    margin-right: 4px;
    margin-bottom: 4px;
    border: 2px #000 solid;
}
.submission
{
    border: 4px #00f solid;
    padding-left: 20px;
}
.hidden
{
    display: none;
}
</style>
</head>
<body><div class="submission" id="t3_68xxe9">
    <p class="userinfo">
        <a href="https://www.reddit.com/u/vcdupper">vcdupper</a>
        <span class="score"> | 37 points</span>
        <span class="timestamp"> | May 03 2017 03:23:05</span>
    </p>
    <strong>[MOVIE] Spiderman.2002.REMASTERED.1080p.BluRay.x264-FilmHD [7.65GB]</strong>
    <p><p>Add mega<br>
.nz/#!Nm5HiQYa<br>
!0kEhVZRn6iAI2Xh2H8dbK4ves2nR3_dkRWszZ6E9YCU  </p>
<hr>
<h3><a href="https://youtu.be/ixZnhA7Wmq4">Unsure How To Download?</a>  &lt;------CLICK HERE!!!</h3>
<hr>
<h3>SPECS:</h3>
<p>Format : Matroska<br>
Format version : Version 4 / Version 2<br>
File size : 7.65 GiB<br>
Duration : 2 h 1 min<br>
Overall bit rate : 9 033 kb/s<br>
Encoded date : UTC 2017-03-31 12:46:53<br>
Writing application : mkvmerge v10.0.0 (\'To Drown In You\') 64bit<br>
Writing library : libebml v1.3.4 + libmatroska v1.4.5  </p>
<p>Video<br>
ID : 1<br>
Format : AVC<br>
Format/Info : Advanced Video Codec<br>
Format profile : High@L4.1<br>
Format settings, CABAC : Yes<br>
Format settings, ReFrames : 4 frames<br>
Codec ID : V_MPEG4/ISO/AVC<br>
Duration : 2 h 1 min<br>
Bit rate : 8398 kb/s<br>
Width : 1920 pixels<br>
Height : 1040 pixels<br>
Display aspect ratio : 1.85:1<br>
Frame rate mode : Constant<br>
Frame rate : 23.976 (24000/1001) FPS<br>
Color space : YUV<br>
Chroma subsampling : 4:2:0<br>
Bit depth : 8 bits<br>
Scan type : Progressive<br>
Bits/(Pixel*Frame) : 0.175<br>
Stream size : 7.10 GiB (93%)<br>
Writing library : x264<br>
Language : English<br>
Default : Yes<br>
Forced : No  </p>
<p>Audio<br>
ID : 2<br>
Format : AC-3<br>
Format/Info : Audio Coding 3<br>
Mode extension : CM (complete main)<br>
Format settings, Endianness : Big<br>
Codec ID : A_AC3<br>
Duration : 2 h 1 min<br>
Bit rate mode : Constant<br>
Bit rate : 640 kb/s<br>
Channel(s) : 6 channels<br>
Channel positions : Front: L C R, Side: L R, LFE<br>
Sampling rate : 48.0 kHz<br>
Frame rate : 31.250 FPS (1536 spf)<br>
Compression mode : Lossy<br>
Stream size : 555 MiB (7%)<br>
Language : English<br>
Default : Yes<br>
Forced : No  </p>
<p>Text<br>
ID : 3<br>
Format : UTF-8<br>
Codec ID : S_TEXT/UTF8<br>
Codec ID/Info : UTF-8 Plain Text<br>
Duration : 1 h 52 min<br>
Bit rate : 47 b/s<br>
Count of elements : 1196<br>
Stream size : 39.4 KiB (0%)<br>
Language : English<br>
Default : No<br>
Forced : No  </p></p>
    <p class="toolbar">
        <a href="https://www.reddit.com/r/megalinks/comments/68xxe9">permalink</a>
    </p>
</div>
<div class="comment" id="t1_dh27rhk">
    <p class="userinfo">
        <a
        class="toggle_hide_button"
        href="javascript:void(0)"
        onclick="toggle_collapse(this.parentElement.parentElement)">[-]
        </a>
        [deleted]
        <span class="score"> | 5 points</span>
        <span class="timestamp"> | May 03 2017 03:43:13</span>
    </p>
    <div class="collapsible">
        <p>Damn you got me feeling like I'm 5 years old again great upload</p>
        <p class="toolbar">
            <a href="https://www.reddit.com/r/megalinks/comments/68xxe9/_/dh27rhk">permalink</a>
        </p>
        
    </div>
</div>

<div class="comment" id="t1_dh2dcu7">
    <p class="userinfo">
        <a
        class="toggle_hide_button"
        href="javascript:void(0)"
        onclick="toggle_collapse(this.parentElement.parentElement)">[-]
        </a>
        <a href="https://www.reddit.com/u/IgnoreMyName">IgnoreMyName</a>
        <span class="score"> | 4 points</span>
        <span class="timestamp"> | May 03 2017 06:34:23</span>
    </p>
    <div class="collapsible">
        <p>Will you be uploading the rest as well?</p>
<p>If not, still appreciate this one. Thank you!</p>
        <p class="toolbar">
            <a href="https://www.reddit.com/r/megalinks/comments/68xxe9/_/dh2dcu7">permalink</a>
        </p>
        
    </div>
</div>

<div class="comment" id="t1_dh4b3y6">
    <p class="userinfo">
        <a
        class="toggle_hide_button"
        href="javascript:void(0)"
        onclick="toggle_collapse(this.parentElement.parentElement)">[-]
        </a>
        <a href="https://www.reddit.com/u/RCS47">RCS47</a>
        <span class="score"> | 4 points</span>
        <span class="timestamp"> | May 04 2017 13:22:56</span>
    </p>
    <div class="collapsible">
        <p>Young Kirsten Dunst in that wet see-through pink blouse was glorious.</p>
        <p class="toolbar">
            <a href="https://www.reddit.com/r/megalinks/comments/68xxe9/_/dh4b3y6">permalink</a>
        </p>
        
    </div>
</div>

<div class="comment" id="t1_dh272t5">
    <p class="userinfo">
        <a
        class="toggle_hide_button"
        href="javascript:void(0)"
        onclick="toggle_collapse(this.parentElement.parentElement)">[-]
        </a>
        <a href="https://www.reddit.com/u/SubZorro">SubZorro</a>
        <span class="score"> | 2 points</span>
        <span class="timestamp"> | May 03 2017 03:27:04</span>
    </p>
    <div class="collapsible">
        <h5>Subtitles for this movie:</h5>
<hr>
<blockquote>
<ul>
<li><strong>Spiderman</strong> - <code>1 CD</code> - <a href="http://dl.opensubtitles.org/en/download/vrf-954e22fe/sub/3082094">Download Subtitle</a></li>
</ul>
</blockquote>
<hr>
<p>^This ^list ^of ^subtitles ^are ^taken ^from <a href="http://www.opensubtitles.org">^opensubtitles.org</a> ^| ^For ^feedback ^or ^suggestions ^contact <a href="http://www.reddit.com/message/compose/?to=indigo6alpha">^/u/indigo6alpha</a></p>
        <p class="toolbar">
            <a href="https://www.reddit.com/r/megalinks/comments/68xxe9/_/dh272t5">permalink</a>
        </p>
        
    </div>
</div>
</body>

<script>
function toggle_collapse(comment_div)
{
    var button = comment_div.getElementsByClassName("toggle_hide_button")[0];
    var collapsible = comment_div.getElementsByClassName("collapsible")[0];
    if (collapsible.classList.contains("hidden"))
    {
        collapsible.classList.remove("hidden");
        button.innerText = "[-]";
    }
    else
    {
        collapsible.classList.add("hidden");
        button.innerText = "[+]";
    }
}
</script>
</html>
